<svg xmlns="http://www.w3.org/2000/svg" xmlns:xlink="http://www.w3.org/1999/xlink" viewBox="0 0 115.879 53.879" fill="#fff" fill-rule="evenodd" stroke="#000" stroke-linecap="round" stroke-linejoin="round"><use xlink:href="#A" x="2.44" y="2.44"/><symbol id="A" overflow="visible"><path d="M5.738 36.872a5.27 5.27 0 0 1 3.806 1.454c.156.122.156.307.03.488l-1.235 1.27c-.122.122-.278.122-.4 0a3.22 3.22 0 0 0-2.132-.805c-1.79 0-3.09 1.483-3.09 3.245s1.327 3.18 3.09 3.18c.764-.005 1.505-.266 2.103-.742.122-.098.307-.098.4.03l1.234 1.298c.122.122.098.307-.03.488-1.083 1.05-2.4 1.464-3.83 1.464C2.532 48.24 0 45.738 0 42.58s2.596-5.66 5.748-5.66zm10.505 0a5.66 5.66 0 0 1 5.66 5.684 5.61 5.61 0 0 1-5.655 5.655 5.61 5.61 0 0 1-5.655-5.655 5.66 5.66 0 0 1 5.655-5.684zm0 8.783a3.19 3.19 0 0 0 3.152-3.123 3.17 3.17 0 0 0-3.152-3.152 3.17 3.17 0 0 0-3.123 3.152c0 1.698 1.464 3.123 3.123 3.123zm7.573-8.32c0-.156.122-.307.278-.307h3.83c3.025 0 5.533 2.474 5.533 5.5a5.53 5.53 0 0 1-5.533 5.533H24.1c-.156 0-.278-.156-.278-.307V37.336zm3.986 8.407c1.79 0 3.06-1.39 3.06-3.18s-1.298-3.186-3.054-3.186h-1.464v6.367zm7.602-8.407c0-.156.122-.307.307-.307h6.52a.31.31 0 0 1 .307.307v1.732c0 .156-.122.307-.307.307h-4.357v1.952h3.586c.156 0 .307.156.307.307v1.732a.31.31 0 0 1-.307.307h-3.586v2.132h4.357a.31.31 0 0 1 .307.307v1.732c0 .156-.122.307-.307.307h-6.52c-.17 0-.307-.137-.307-.307zm17.58-.464a5.27 5.27 0 0 1 3.806 1.454c.156.122.156.307.03.488l-1.234 1.27c-.122.122-.278.122-.4 0a3.22 3.22 0 0 0-2.132-.805c-1.79 0-3.09 1.483-3.09 3.245s1.327 3.18 3.09 3.18c.764-.005 1.505-.266 2.103-.742.122-.098.307-.098.4.03L56.8 46.29c.122.122.098.307-.03.488-1.083 1.05-2.4 1.464-3.83 1.464-3.152 0-5.684-2.503-5.684-5.66s2.596-5.66 5.748-5.66zm5.684.464c0-.156.122-.307.307-.307h1.883c.156 0 .308.156.308.307v8.407h3.737a.31.31 0 0 1 .307.307v1.727c0 .156-.122.307-.307.307H59.05c-.17 0-.307-.137-.307-.307V37.336h-.03zm8.065 0c0-.156.156-.307.307-.307h1.883c.156 0 .307.156.307.307v10.412c0 .156-.156.307-.307.307H67.04c-.156 0-.307-.156-.307-.307V37.336zm6.275-.185c.03-.156.156-.244.278-.244h.244c.098 0 .215.063.278.156l3.645 6.797h.03l3.645-6.797a.36.36 0 0 1 .278-.156h.244c.122 0 .278.122.278.244l1.79 10.568c.03.215-.122.342-.307.342h-1.854c-.156 0-.278-.122-.307-.244l-.712-4.85h-.03l-2.625 5.074c-.063.098-.185.185-.278.185h-.278c-.098 0-.215-.098-.278-.185l-2.66-5.1h-.03l-.683 4.85c-.03.122-.156.244-.307.244h-1.854c-.185 0-.342-.156-.307-.34zm11.3 10.505l4.913-10.598c.064-.098.156-.185.278-.185h.156c.122 0 .215.098.278.185l4.913 10.598c.098.215-.03.4-.278.4h-1.757c-.278 0-.4-.098-.556-.4L91.7 46.42h-4.264L86.9 47.7c-.098.185-.244.37-.556.37H84.6c-.244 0-.37-.215-.278-.4zm6.46-3.415l-1.205-2.596h-.03l-1.17 2.596h2.4zm6.246-4.943H94.77c-.17 0-.307-.137-.307-.307v-1.732c0-.156.122-.307.307-.307h6.977a.31.31 0 0 1 .307.307v1.757c0 .156-.122.307-.307.307h-2.254v8.456c0 .156-.156.307-.307.307h-1.883c-.156 0-.307-.156-.307-.307v-8.44zm6.587-2c0-.156.122-.307.307-.307h6.52a.31.31 0 0 1 .307.307v1.732c0 .156-.122.307-.307.307h-4.357v1.952h3.586c.156 0 .307.156.307.307v1.732a.31.31 0 0 1-.307.307h-3.586v2.132h4.357a.31.31 0 0 1 .307.307v1.732c0 .156-.122.307-.307.307h-6.514c-.17 0-.307-.137-.307-.307zM64.577 0L54.184 10.334l6.12 6.216 4.225-4.225L76.404 24.21l6.11-6.167zM52.3 12.218l-6.148-6.11-18 18.04 6.162 6.162 2.44-2.454 9.475-9.417 11.876 11.876 6.167-6.167-11.93-11.93z" stroke="none" fill="#0b2734" fill-rule="nonzero"/></symbol></svg>